<svg width="1440" height="980" viewBox="0 0 1440 980" fill="none" xmlns="http://www.w3.org/2000/svg">
  <defs><filter id="shadow" x="-20%" y="-20%" width="140%" height="140%"><feDropShadow dx="0" dy="14" stdDeviation="18" flood-color="#1E1B17" flood-opacity=".10"/></filter><style>.bg{fill:#F6F2EA}.surface{fill:#FFFCF7;stroke:#DED8CC}.cream{fill:#FFF5EB;stroke:#E8D1BF}.blue{fill:#EEF6F8;stroke:#C8DDE4}.green{fill:#F1F6EE;stroke:#CFDBC6}.ink{fill:#23211D;font-family:Inter,Arial}.muted{fill:#6F6A61;font-family:Inter,Arial}.h1{font:700 30px Inter,Arial}.h2{font:700 19px Inter,Arial}.body{font:15px Inter,Arial}.small{font:12px Inter,Arial;letter-spacing:1.1px}</style></defs>
  <rect width="1440" height="980" class="bg"/>
  <g transform="translate(34 24)"><rect width="1372" height="74" rx="18" class="surface" filter="url(#shadow)"/><rect x="18" y="16" width="42" height="42" rx="12" fill="#23211D"/><path d="M33 50l6-22 8 22H33z" fill="#fff"/><text x="76" y="34" class="ink h2">Content Calendar Studio</text><text x="76" y="56" class="muted body">Calendar screen · post production workspace</text><g transform="translate(510 15)"><rect width="134" height="44" rx="12" fill="#F3F0E9"/><text x="42" y="28" class="ink body" font-weight="700">Inputs</text><rect x="148" width="194" height="44" rx="12" fill="#23211D"/><text x="196" y="28" fill="#fff" font-family="Inter,Arial" font-size="15" font-weight="700">Content Calendar</text><rect x="356" width="142" height="44" rx="12" fill="#F3F0E9"/><text x="399" y="28" class="ink body" font-weight="700">Analytics</text></g></g>
  <g transform="translate(42 126)"><text class="ink h1" y="32">Content Calendar</text><text class="muted body" y="60">Posts grouped by date. Some days can have zero, one, or multiple content slots.</text><rect x="960" y="8" width="190" height="44" rx="12" fill="#23211D"/><text x="994" y="36" fill="#fff" font-family="Inter,Arial" font-size="15" font-weight="700">Create plan</text><rect x="1164" y="8" width="190" height="44" rx="12" fill="#FFF5EB" stroke="#E8D1BF"/><text x="1194" y="36" class="ink body" font-weight="700">Recompute themes</text></g>
  <g transform="translate(42 214)">
    <rect width="456" height="708" rx="18" class="surface" filter="url(#shadow)"/>
    <g transform="translate(24 24)"><text class="muted small">PERIOD</text><text y="32" class="ink h2">May 13-May 31 · 20 posts</text><rect y="54" width="408" height="44" rx="12" class="blue"/><text x="18" y="82" class="ink body" font-weight="700">Auto spread: 1 skipped day, no overload</text></g>
    <g transform="translate(20 146)">
      <rect width="416" height="94" rx="15" class="cream"/><text x="18" y="30" class="muted small">MAY 13</text><text x="18" y="58" class="ink h2">1 post</text><rect x="298" y="24" width="86" height="34" rx="10" fill="#FF4C16"/><text x="318" y="46" fill="#fff" font-family="Inter,Arial" font-size="13" font-weight="700">Both</text><text x="18" y="80" class="muted body">Reels cover · comfort proof</text>
      <rect y="110" width="416" height="94" rx="15" class="surface"/><text x="18" y="140" class="muted small">MAY 14</text><text x="18" y="168" class="ink h2">1 post</text><rect x="298" y="134" width="86" height="34" rx="10" fill="#416D84"/><text x="314" y="156" fill="#fff" font-family="Inter,Arial" font-size="13" font-weight="700">Carousel</text><text x="18" y="190" class="muted body">Fit worries after body changes</text>
      <rect y="220" width="416" height="94" rx="15" class="green"/><text x="18" y="250" class="muted small">MAY 15</text><text x="18" y="278" class="ink h2">2 posts</text><rect x="294" y="244" width="96" height="34" rx="10" fill="#87936D"/><text x="312" y="266" fill="#fff" font-family="Inter,Arial" font-size="13" font-weight="700">Double</text><text x="18" y="300" class="muted body">TikTok myth + IG product still</text>
      <rect y="330" width="416" height="70" rx="15" fill="#F3F0E9" stroke="#DED8CC"/><text x="18" y="360" class="muted small">MAY 16</text><text x="18" y="388" class="ink h2">No post scheduled</text>
    </g>
  </g>
  <g transform="translate(528 214)">
    <rect width="870" height="708" rx="18" class="surface" filter="url(#shadow)"/>
    <g transform="translate(28 28)"><text class="muted small">SELECTED SLOT</text><text y="34" class="ink h1">May 15 · Post 1 of 2</text><rect x="616" y="0" width="196" height="44" rx="12" fill="#23211D"/><text x="646" y="29" fill="#fff" font-family="Inter,Arial" font-size="15" font-weight="700">Generate packet</text></g>
    <g transform="translate(28 98)">
      <rect width="392" height="242" rx="16" class="cream"/><text x="22" y="38" class="ink h2">Post idea</text><text x="22" y="70" class="muted body">Hook, angle, format, platform, CTA, status.</text><rect x="22" y="98" width="348" height="42" rx="10" fill="#fff" stroke="#E8D1BF"/><text x="40" y="125" class="ink body">Support without squeeze: one myth</text><rect x="22" y="156" width="348" height="58" rx="10" fill="#fff" stroke="#E8D1BF"/><text x="40" y="187" class="muted body">Adapt competitor mechanic into ILARIA voice...</text>
      <rect x="430" width="384" height="242" rx="16" class="blue"/><text x="452" y="38" class="ink h2">Image / video brief</text><text x="452" y="70" class="muted body">Format, resolution, style, objects, impression.</text><rect x="452" y="98" width="144" height="34" rx="10" fill="#fff" stroke="#C8DDE4"/><text x="470" y="120" class="ink body">9:16 cover</text><rect x="606" y="98" width="184" height="34" rx="10" fill="#fff" stroke="#C8DDE4"/><text x="624" y="120" class="ink body">Warm editorial</text><rect x="452" y="156" width="160" height="42" rx="10" fill="#23211D"/><text x="482" y="183" fill="#fff" font-family="Inter,Arial" font-size="15" font-weight="700">Copy brief</text>
    </g>
    <g transform="translate(28 376)">
      <rect width="392" height="256" rx="16" class="green"/><text x="22" y="38" class="ink h2">Copy + scripts</text><path d="M22 72h338M22 114h338M22 156h338M22 198h250" stroke="#CFDBC6" stroke-width="2"/><text x="22" y="232" class="muted body">Hooks, caption variants, CTA, hashtags.</text>
      <rect x="430" width="384" height="256" rx="16" class="surface"/><text x="452" y="38" class="ink h2">Prepared assets</text><rect x="452" y="64" width="92" height="120" rx="12" fill="#FFF5EB" stroke="#E8D1BF"/><rect x="560" y="64" width="92" height="120" rx="12" fill="#EEF6F8" stroke="#C8DDE4"/><rect x="668" y="64" width="92" height="120" rx="12" fill="#F1F6EE" stroke="#CFDBC6"/><text x="452" y="220" class="muted body">External image/video links attached here.</text>
    </g>
  </g>
</svg>
